<svg id="ART" xmlns="http://www.w3.org/2000/svg" xmlns:xlink="http://www.w3.org/1999/xlink" viewBox="0 0 48 48"><defs><style>.cls-1{fill:url(#linear-gradient);}.cls-2{fill:url(#linear-gradient-2);}.cls-3{fill:url(#linear-gradient-3);}.cls-4{fill:url(#linear-gradient-4);}.cls-5{fill:url(#linear-gradient-5);}.cls-6{fill:url(#linear-gradient-6);}.cls-7{fill:url(#linear-gradient-7);}.cls-8{fill:url(#linear-gradient-8);}.cls-9{fill:url(#linear-gradient-9);}.cls-10{fill:url(#linear-gradient-10);}.cls-11{fill:url(#linear-gradient-11);}.cls-12{fill:url(#linear-gradient-12);}.cls-13{fill:url(#linear-gradient-13);}.cls-14{fill:url(#linear-gradient-14);}.cls-15{fill:url(#linear-gradient-15);}.cls-16{fill:url(#linear-gradient-16);}.cls-17{fill:url(#linear-gradient-17);}.cls-18{fill:url(#linear-gradient-18);}.cls-19{fill:url(#linear-gradient-19);}.cls-20{fill:url(#linear-gradient-20);}.cls-21{fill:url(#linear-gradient-21);}.cls-22{fill:url(#linear-gradient-22);}</style><linearGradient id="linear-gradient" x1="17.25" y1="46.63" x2="17.25" y2="-6.37" gradientUnits="userSpaceOnUse"><stop offset="0" stop-color="#27e9de"/><stop offset="0.52" stop-color="#03a4ec"/><stop offset="1" stop-color="#2547a8"/></linearGradient><linearGradient id="linear-gradient-2" y1="9.53" x2="17.25" y2="0.8" xlink:href="#linear-gradient"/><linearGradient id="linear-gradient-3" y1="32.78" x2="17.25" y2="24.05" xlink:href="#linear-gradient"/><linearGradient id="linear-gradient-4" x1="-20.77" y1="-4.01" x2="-20.77" y2="-12.74" gradientTransform="translate(32.21 15.1)" xlink:href="#linear-gradient"/><linearGradient id="linear-gradient-5" x1="-20.77" y1="19.24" x2="-20.77" y2="10.51" gradientTransform="translate(43.83 11.98)" xlink:href="#linear-gradient"/><linearGradient id="linear-gradient-6" x1="-46.64" y1="-35.24" x2="-46.64" y2="-43.97" gradientTransform="translate(53.82 50.58)" xlink:href="#linear-gradient"/><linearGradient id="linear-gradient-7" x1="-46.64" y1="-11.99" x2="-46.64" y2="-20.72" gradientTransform="translate(73.96 38.95)" xlink:href="#linear-gradient"/><linearGradient id="linear-gradient-8" x1="-54" y1="-75.22" x2="-54" y2="-83.95" gradientTransform="translate(84.38 -36.38) rotate(-90)" xlink:href="#linear-gradient"/><linearGradient id="linear-gradient-9" x1="-54" y1="-51.97" x2="-54" y2="-60.7" gradientTransform="translate(84.38 -36.38) rotate(-90)" xlink:href="#linear-gradient"/><linearGradient id="linear-gradient-10" x1="-40.1" y1="-113.03" x2="-40.1" y2="-121.77" gradientTransform="translate(123.74 -16.66) rotate(-90)" xlink:href="#linear-gradient"/><linearGradient id="linear-gradient-11" x1="-40.1" y1="-89.78" x2="-40.1" y2="-98.52" gradientTransform="translate(120.63 -28.29) rotate(-90)" xlink:href="#linear-gradient"/><linearGradient id="linear-gradient-12" x1="31.5" y1="21" x2="31.5" y2="-20.32" gradientUnits="userSpaceOnUse"><stop offset="0" stop-color="#fff"/><stop offset="0.52" stop-color="#cce2e6"/><stop offset="1" stop-color="#8fa1bb"/></linearGradient><linearGradient id="linear-gradient-13" x1="25.26" y1="20.85" x2="32.51" y2="5.22" xlink:href="#linear-gradient-12"/><linearGradient id="linear-gradient-14" x1="-8.87" y1="-139.32" x2="-8.87" y2="-148.05" gradientTransform="translate(154.28 18.82) rotate(-90)" xlink:href="#linear-gradient"/><linearGradient id="linear-gradient-15" x1="-8.87" y1="-116.07" x2="-8.87" y2="-124.8" gradientTransform="translate(142.66 -1.31) rotate(-90)" xlink:href="#linear-gradient"/><linearGradient id="linear-gradient-16" x1="18.35" y1="28.25" x2="18.35" y2="12.46" xlink:href="#linear-gradient"/><linearGradient id="linear-gradient-17" x1="17.34" y1="39.06" x2="17.34" y2="13.25" xlink:href="#linear-gradient"/><linearGradient id="linear-gradient-18" x1="17.25" y1="28.99" x2="17.25" y2="-48.52" gradientUnits="userSpaceOnUse"><stop offset="0" stop-color="#fff"/><stop offset="0.41" stop-color="#cce2e6"/><stop offset="1" stop-color="#8fa1bb"/></linearGradient><linearGradient id="linear-gradient-19" x1="73" y1="22.39" x2="-60.67" y2="34.72" gradientUnits="userSpaceOnUse"><stop offset="0" stop-color="#f3c57a"/><stop offset="0.49" stop-color="#f39369"/><stop offset="1" stop-color="#e94867"/></linearGradient><linearGradient id="linear-gradient-20" x1="44.21" y1="21.67" x2="16.13" y2="13.92" xlink:href="#linear-gradient-19"/><linearGradient id="linear-gradient-21" x1="41.4" y1="31.85" x2="13.32" y2="24.1" xlink:href="#linear-gradient-19"/><linearGradient id="linear-gradient-22" x1="37.5" y1="42.67" x2="37.5" y2="28.5" gradientUnits="userSpaceOnUse"><stop offset="0" stop-color="#273a9b"/><stop offset="0.56" stop-color="#202f65"/><stop offset="1" stop-color="#021e2f"/></linearGradient></defs><title>cost, click, money, finance, dollar</title><circle class="cls-1" cx="17.25" cy="17.25" r="14.25"/><circle class="cls-2" cx="17.25" cy="6" r="0.75"/><circle class="cls-3" cx="17.25" cy="29.25" r="0.75"/><circle class="cls-4" cx="11.44" cy="7.56" r="0.75" transform="matrix(0.87, -0.5, 0.5, 0.87, -2.25, 6.73)"/><circle class="cls-5" cx="23.06" cy="27.69" r="0.75" transform="matrix(0.87, -0.5, 0.5, 0.87, -10.76, 15.24)"/><circle class="cls-6" cx="7.18" cy="11.81" r="0.75" transform="translate(-6.64 12.13) rotate(-60)"/><circle class="cls-7" cx="27.32" cy="23.44" r="0.75" transform="translate(-6.64 35.38) rotate(-60)"/><circle class="cls-8" cx="5.63" cy="17.63" r="0.75"/><circle class="cls-9" cx="28.88" cy="17.63" r="0.75"/><circle class="cls-10" cx="7.18" cy="23.44" r="0.75" transform="translate(-10.76 6.73) rotate(-30)"/><circle class="cls-11" cx="27.32" cy="11.81" r="0.75" transform="translate(-2.25 15.24) rotate(-30)"/><circle class="cls-12" cx="31.5" cy="11.06" r="5.25"/><path class="cls-13" d="M31.45,16.31a14.18,14.18,0,0,0-3.81-8.78,5.23,5.23,0,0,0,3.81,8.78Z"/><circle class="cls-14" cx="11.44" cy="27.69" r="0.75" transform="translate(-18.26 23.75) rotate(-60)"/><circle class="cls-15" cx="23.06" cy="7.56" r="0.75" transform="translate(4.99 23.75) rotate(-60)"/><rect class="cls-16" x="16.13" y="12.88" width="4.46" height="6.33"/><path class="cls-17" d="M13.42,30.93h7.84V19.31L13.42,15Z"/><path class="cls-18" d="M21,18a3,3,0,0,0-.63-.94,3.59,3.59,0,0,0-.87-.64,8.67,8.67,0,0,0-.94-.42l-.9-.34a5.11,5.11,0,0,1-.73-.33A1.43,1.43,0,0,1,16.5,15a.67.67,0,0,1-.13-.43.77.77,0,0,1,.06-.31A.57.57,0,0,1,16.6,14a1.05,1.05,0,0,1,.37-.17,3.13,3.13,0,0,1,1.43,0,5.61,5.61,0,0,1,.66.22l.49.22c.37.19.61.19.8.06a.59.59,0,0,0,.22-.3,1.3,1.3,0,0,0,.07-.36q0-.18,0-.46c0-.14,0-.26,0-.36a2.19,2.19,0,0,0,0-.3,1,1,0,0,0-.09-.27,1,1,0,0,0-.18-.24,1.28,1.28,0,0,0-.36-.23l-.45-.18a4.73,4.73,0,0,0-.53-.15l-.17,0L19,10.22a.9.9,0,0,0,0-.29.57.57,0,0,0-.3-.34,1.19,1.19,0,0,0-.38-.11,4.07,4.07,0,0,0-.89,0,1.09,1.09,0,0,0-.33.09.62.62,0,0,0-.26.22.65.65,0,0,0-.09.27v.12a1.87,1.87,0,0,1-1.14,1.54l-.09,0a3.41,3.41,0,0,0-1.08.7,3,3,0,0,0-.69,1,3.4,3.4,0,0,0-.24,1.28,3.46,3.46,0,0,0,.23,1.33,3,3,0,0,0,.63,1,3.75,3.75,0,0,0,.86.64,8.07,8.07,0,0,0,.93.43l.89.33a4.54,4.54,0,0,1,.72.32,1.53,1.53,0,0,1,.44.36.67.67,0,0,1,.12.43.79.79,0,0,1-.33.67,2.07,2.07,0,0,1-1.23.29,3.88,3.88,0,0,1-1-.11,4.79,4.79,0,0,1-.73-.26,5.49,5.49,0,0,1-.5-.26.77.77,0,0,0-.85-.09.65.65,0,0,0-.26.31,1.37,1.37,0,0,0-.09.39c0,.13,0,.3,0,.5a3.08,3.08,0,0,0,.05.64.93.93,0,0,0,.24.47,1.57,1.57,0,0,0,.37.26,4.11,4.11,0,0,0,.49.22,5.86,5.86,0,0,0,.62.19l.36.08-.14,1.32a.67.67,0,0,0,0,.37.6.6,0,0,0,.3.32,1.23,1.23,0,0,0,.36.11,3.31,3.31,0,0,0,.49,0,2.66,2.66,0,0,0,.4,0,1.31,1.31,0,0,0,.31-.08.58.58,0,0,0,.29-.24.69.69,0,0,0,.09-.27v-.06a2.09,2.09,0,0,1,1.39-1.73h0a4,4,0,0,0,1.25-.74A3.28,3.28,0,0,0,21,20.76a3.57,3.57,0,0,0,.29-1.45A3.28,3.28,0,0,0,21,18Z"/><path class="cls-19" d="M22.78,24.23a3,3,0,0,1,1.25.25l4.18,1.79a.58.58,0,0,0,.8-.53V11a2.38,2.38,0,0,1,2.17-2.42A2.29,2.29,0,0,1,33.6,10.9v3a3.61,3.61,0,0,0,2.79,3.52l4.23,1a4.09,4.09,0,0,1,3.28,4V42.71H31.31V37.35A3.18,3.18,0,0,0,30.21,35l-8.57-7.44A1.87,1.87,0,0,1,22.78,24.23Z"/><path class="cls-20" d="M29.36,9.77A2.51,2.51,0,0,0,29,11V25.28a14.2,14.2,0,0,0,.35-15.51Z"/><path class="cls-21" d="M28.27,26.28h-.06L24,24.48a3,3,0,0,0-1.25-.25,1.87,1.87,0,0,0-1.13,3.29l2.52,2.19A14.31,14.31,0,0,0,28.27,26.28Z"/><path class="cls-22" d="M30.86,42H44.14a.86.86,0,0,1,.86.86V45a0,0,0,0,1,0,0H30a0,0,0,0,1,0,0V42.86A.86.86,0,0,1,30.86,42Z"/></svg>